<mxfile host="app.diagrams.net" modified="2024-07-10T21:53:19.089Z" agent="Mozilla/5.0 (Windows NT 10.0; Win64; x64) AppleWebKit/537.36 (KHTML, like Gecko) Chrome/126.0.0.0 Safari/537.36" etag="HxH-hKrLy8RGs-XsHun0" version="24.6.4" type="github">
  <diagram name="PÃ¡gina-1" id="nKkqrkX7go2M5BKea9ZO">
    <mxGraphModel dx="2021" dy="1911" grid="1" gridSize="10" guides="1" tooltips="1" connect="1" arrows="1" fold="1" page="1" pageScale="1" pageWidth="827" pageHeight="1169" math="0" shadow="0">
      <root>
        <mxCell id="0" />
        <mxCell id="1" parent="0" />
        <mxCell id="MZzf7anuwCpoz_c_mhRq-1" value="CompleteObject" style="swimlane;fontStyle=1;align=center;verticalAlign=top;childLayout=stackLayout;horizontal=1;startSize=26;horizontalStack=0;resizeParent=1;resizeParentMax=0;resizeLast=0;collapsible=1;marginBottom=0;whiteSpace=wrap;html=1;" vertex="1" parent="1">
          <mxGeometry x="-180" y="50" width="280" height="112" as="geometry" />
        </mxCell>
        <mxCell id="MZzf7anuwCpoz_c_mhRq-2" value="- GeometricFigureList : List&amp;lt;GeometricFigure&amp;gt;" style="text;strokeColor=none;fillColor=none;align=left;verticalAlign=top;spacingLeft=4;spacingRight=4;overflow=hidden;rotatable=0;points=[[0,0.5],[1,0.5]];portConstraint=eastwest;whiteSpace=wrap;html=1;" vertex="1" parent="MZzf7anuwCpoz_c_mhRq-1">
          <mxGeometry y="26" width="280" height="26" as="geometry" />
        </mxCell>
        <mxCell id="MZzf7anuwCpoz_c_mhRq-3" value="" style="line;strokeWidth=1;fillColor=none;align=left;verticalAlign=middle;spacingTop=-1;spacingLeft=3;spacingRight=3;rotatable=0;labelPosition=right;points=[];portConstraint=eastwest;strokeColor=inherit;" vertex="1" parent="MZzf7anuwCpoz_c_mhRq-1">
          <mxGeometry y="52" width="280" height="8" as="geometry" />
        </mxCell>
        <mxCell id="MZzf7anuwCpoz_c_mhRq-4" value="+ addGeometricFigure(GeometricFigure) : void" style="text;strokeColor=none;fillColor=none;align=left;verticalAlign=top;spacingLeft=4;spacingRight=4;overflow=hidden;rotatable=0;points=[[0,0.5],[1,0.5]];portConstraint=eastwest;whiteSpace=wrap;html=1;" vertex="1" parent="MZzf7anuwCpoz_c_mhRq-1">
          <mxGeometry y="60" width="280" height="26" as="geometry" />
        </mxCell>
        <mxCell id="MZzf7anuwCpoz_c_mhRq-6" value="+ calculateTotalArea() : void" style="text;strokeColor=none;fillColor=none;align=left;verticalAlign=top;spacingLeft=4;spacingRight=4;overflow=hidden;rotatable=0;points=[[0,0.5],[1,0.5]];portConstraint=eastwest;whiteSpace=wrap;html=1;" vertex="1" parent="MZzf7anuwCpoz_c_mhRq-1">
          <mxGeometry y="86" width="280" height="26" as="geometry" />
        </mxCell>
        <mxCell id="MZzf7anuwCpoz_c_mhRq-7" value="&amp;lt;&amp;lt;GeometricFigure&amp;gt;&amp;gt;" style="swimlane;fontStyle=1;align=center;verticalAlign=top;childLayout=stackLayout;horizontal=1;startSize=26;horizontalStack=0;resizeParent=1;resizeParentMax=0;resizeLast=0;collapsible=1;marginBottom=0;whiteSpace=wrap;html=1;" vertex="1" parent="1">
          <mxGeometry x="380" y="60" width="160" height="52" as="geometry" />
        </mxCell>
        <mxCell id="MZzf7anuwCpoz_c_mhRq-8" value="+ calculateArea() : Double" style="text;strokeColor=none;fillColor=none;align=left;verticalAlign=top;spacingLeft=4;spacingRight=4;overflow=hidden;rotatable=0;points=[[0,0.5],[1,0.5]];portConstraint=eastwest;whiteSpace=wrap;html=1;" vertex="1" parent="MZzf7anuwCpoz_c_mhRq-7">
          <mxGeometry y="26" width="160" height="26" as="geometry" />
        </mxCell>
        <mxCell id="MZzf7anuwCpoz_c_mhRq-33" style="edgeStyle=orthogonalEdgeStyle;rounded=0;orthogonalLoop=1;jettySize=auto;html=1;entryX=0.531;entryY=1.154;entryDx=0;entryDy=0;entryPerimeter=0;dashed=1;dashPattern=8 8;" edge="1" parent="1" source="MZzf7anuwCpoz_c_mhRq-11" target="MZzf7anuwCpoz_c_mhRq-8">
          <mxGeometry relative="1" as="geometry">
            <Array as="points">
              <mxPoint x="200" y="140" />
              <mxPoint x="460" y="140" />
              <mxPoint x="460" y="116" />
            </Array>
          </mxGeometry>
        </mxCell>
        <mxCell id="MZzf7anuwCpoz_c_mhRq-11" value="Circle" style="swimlane;fontStyle=1;align=center;verticalAlign=top;childLayout=stackLayout;horizontal=1;startSize=26;horizontalStack=0;resizeParent=1;resizeParentMax=0;resizeLast=0;collapsible=1;marginBottom=0;whiteSpace=wrap;html=1;" vertex="1" parent="1">
          <mxGeometry x="120" y="180" width="160" height="86" as="geometry" />
        </mxCell>
        <mxCell id="MZzf7anuwCpoz_c_mhRq-12" value="- radio : Double" style="text;strokeColor=none;fillColor=none;align=left;verticalAlign=top;spacingLeft=4;spacingRight=4;overflow=hidden;rotatable=0;points=[[0,0.5],[1,0.5]];portConstraint=eastwest;whiteSpace=wrap;html=1;" vertex="1" parent="MZzf7anuwCpoz_c_mhRq-11">
          <mxGeometry y="26" width="160" height="26" as="geometry" />
        </mxCell>
        <mxCell id="MZzf7anuwCpoz_c_mhRq-13" value="" style="line;strokeWidth=1;fillColor=none;align=left;verticalAlign=middle;spacingTop=-1;spacingLeft=3;spacingRight=3;rotatable=0;labelPosition=right;points=[];portConstraint=eastwest;strokeColor=inherit;" vertex="1" parent="MZzf7anuwCpoz_c_mhRq-11">
          <mxGeometry y="52" width="160" height="8" as="geometry" />
        </mxCell>
        <mxCell id="MZzf7anuwCpoz_c_mhRq-14" value="+ method(type): type" style="text;strokeColor=none;fillColor=none;align=left;verticalAlign=top;spacingLeft=4;spacingRight=4;overflow=hidden;rotatable=0;points=[[0,0.5],[1,0.5]];portConstraint=eastwest;whiteSpace=wrap;html=1;" vertex="1" parent="MZzf7anuwCpoz_c_mhRq-11">
          <mxGeometry y="60" width="160" height="26" as="geometry" />
        </mxCell>
        <mxCell id="MZzf7anuwCpoz_c_mhRq-34" style="edgeStyle=orthogonalEdgeStyle;rounded=0;orthogonalLoop=1;jettySize=auto;html=1;dashed=1;" edge="1" parent="1" source="MZzf7anuwCpoz_c_mhRq-15" target="MZzf7anuwCpoz_c_mhRq-7">
          <mxGeometry relative="1" as="geometry">
            <Array as="points">
              <mxPoint x="430" y="146" />
              <mxPoint x="460" y="146" />
            </Array>
          </mxGeometry>
        </mxCell>
        <mxCell id="MZzf7anuwCpoz_c_mhRq-15" value="Rectangle" style="swimlane;fontStyle=1;align=center;verticalAlign=top;childLayout=stackLayout;horizontal=1;startSize=26;horizontalStack=0;resizeParent=1;resizeParentMax=0;resizeLast=0;collapsible=1;marginBottom=0;whiteSpace=wrap;html=1;" vertex="1" parent="1">
          <mxGeometry x="350" y="180" width="160" height="112" as="geometry" />
        </mxCell>
        <mxCell id="MZzf7anuwCpoz_c_mhRq-16" value="- base : Double" style="text;strokeColor=none;fillColor=none;align=left;verticalAlign=top;spacingLeft=4;spacingRight=4;overflow=hidden;rotatable=0;points=[[0,0.5],[1,0.5]];portConstraint=eastwest;whiteSpace=wrap;html=1;" vertex="1" parent="MZzf7anuwCpoz_c_mhRq-15">
          <mxGeometry y="26" width="160" height="26" as="geometry" />
        </mxCell>
        <mxCell id="MZzf7anuwCpoz_c_mhRq-18" value="- height : Double" style="text;strokeColor=none;fillColor=none;align=left;verticalAlign=top;spacingLeft=4;spacingRight=4;overflow=hidden;rotatable=0;points=[[0,0.5],[1,0.5]];portConstraint=eastwest;whiteSpace=wrap;html=1;" vertex="1" parent="MZzf7anuwCpoz_c_mhRq-15">
          <mxGeometry y="52" width="160" height="26" as="geometry" />
        </mxCell>
        <mxCell id="MZzf7anuwCpoz_c_mhRq-20" value="" style="line;strokeWidth=1;fillColor=none;align=left;verticalAlign=middle;spacingTop=-1;spacingLeft=3;spacingRight=3;rotatable=0;labelPosition=right;points=[];portConstraint=eastwest;strokeColor=inherit;" vertex="1" parent="MZzf7anuwCpoz_c_mhRq-15">
          <mxGeometry y="78" width="160" height="8" as="geometry" />
        </mxCell>
        <mxCell id="MZzf7anuwCpoz_c_mhRq-19" value="+ method(type): type" style="text;strokeColor=none;fillColor=none;align=left;verticalAlign=top;spacingLeft=4;spacingRight=4;overflow=hidden;rotatable=0;points=[[0,0.5],[1,0.5]];portConstraint=eastwest;whiteSpace=wrap;html=1;" vertex="1" parent="MZzf7anuwCpoz_c_mhRq-15">
          <mxGeometry y="86" width="160" height="26" as="geometry" />
        </mxCell>
        <mxCell id="MZzf7anuwCpoz_c_mhRq-38" style="edgeStyle=orthogonalEdgeStyle;rounded=0;orthogonalLoop=1;jettySize=auto;html=1;dashed=1;dashPattern=8 8;" edge="1" parent="1" source="MZzf7anuwCpoz_c_mhRq-21" target="MZzf7anuwCpoz_c_mhRq-8">
          <mxGeometry relative="1" as="geometry">
            <Array as="points">
              <mxPoint x="650" y="140" />
              <mxPoint x="460" y="140" />
            </Array>
          </mxGeometry>
        </mxCell>
        <mxCell id="MZzf7anuwCpoz_c_mhRq-21" value="Triangle" style="swimlane;fontStyle=1;align=center;verticalAlign=top;childLayout=stackLayout;horizontal=1;startSize=26;horizontalStack=0;resizeParent=1;resizeParentMax=0;resizeLast=0;collapsible=1;marginBottom=0;whiteSpace=wrap;html=1;" vertex="1" parent="1">
          <mxGeometry x="570" y="180" width="160" height="112" as="geometry" />
        </mxCell>
        <mxCell id="MZzf7anuwCpoz_c_mhRq-22" value="- base : Double" style="text;strokeColor=none;fillColor=none;align=left;verticalAlign=top;spacingLeft=4;spacingRight=4;overflow=hidden;rotatable=0;points=[[0,0.5],[1,0.5]];portConstraint=eastwest;whiteSpace=wrap;html=1;" vertex="1" parent="MZzf7anuwCpoz_c_mhRq-21">
          <mxGeometry y="26" width="160" height="26" as="geometry" />
        </mxCell>
        <mxCell id="MZzf7anuwCpoz_c_mhRq-26" value="- height : Double" style="text;strokeColor=none;fillColor=none;align=left;verticalAlign=top;spacingLeft=4;spacingRight=4;overflow=hidden;rotatable=0;points=[[0,0.5],[1,0.5]];portConstraint=eastwest;whiteSpace=wrap;html=1;" vertex="1" parent="MZzf7anuwCpoz_c_mhRq-21">
          <mxGeometry y="52" width="160" height="26" as="geometry" />
        </mxCell>
        <mxCell id="MZzf7anuwCpoz_c_mhRq-23" value="" style="line;strokeWidth=1;fillColor=none;align=left;verticalAlign=middle;spacingTop=-1;spacingLeft=3;spacingRight=3;rotatable=0;labelPosition=right;points=[];portConstraint=eastwest;strokeColor=inherit;" vertex="1" parent="MZzf7anuwCpoz_c_mhRq-21">
          <mxGeometry y="78" width="160" height="8" as="geometry" />
        </mxCell>
        <mxCell id="MZzf7anuwCpoz_c_mhRq-24" value="+ method(type): type" style="text;strokeColor=none;fillColor=none;align=left;verticalAlign=top;spacingLeft=4;spacingRight=4;overflow=hidden;rotatable=0;points=[[0,0.5],[1,0.5]];portConstraint=eastwest;whiteSpace=wrap;html=1;" vertex="1" parent="MZzf7anuwCpoz_c_mhRq-21">
          <mxGeometry y="86" width="160" height="26" as="geometry" />
        </mxCell>
        <mxCell id="MZzf7anuwCpoz_c_mhRq-37" style="edgeStyle=orthogonalEdgeStyle;rounded=0;orthogonalLoop=1;jettySize=auto;html=1;dashed=1;dashPattern=8 8;" edge="1" parent="1" source="MZzf7anuwCpoz_c_mhRq-27" target="MZzf7anuwCpoz_c_mhRq-8">
          <mxGeometry relative="1" as="geometry">
            <Array as="points">
              <mxPoint x="920" y="140" />
              <mxPoint x="460" y="140" />
            </Array>
          </mxGeometry>
        </mxCell>
        <mxCell id="MZzf7anuwCpoz_c_mhRq-40" style="edgeStyle=orthogonalEdgeStyle;rounded=0;orthogonalLoop=1;jettySize=auto;html=1;entryX=1;entryY=0.25;entryDx=0;entryDy=0;" edge="1" parent="1" source="MZzf7anuwCpoz_c_mhRq-27" target="MZzf7anuwCpoz_c_mhRq-7">
          <mxGeometry relative="1" as="geometry">
            <Array as="points">
              <mxPoint x="1100" y="223" />
              <mxPoint x="1100" y="73" />
            </Array>
          </mxGeometry>
        </mxCell>
        <mxCell id="MZzf7anuwCpoz_c_mhRq-27" value="GeometricFigureComposite" style="swimlane;fontStyle=1;align=center;verticalAlign=top;childLayout=stackLayout;horizontal=1;startSize=26;horizontalStack=0;resizeParent=1;resizeParentMax=0;resizeLast=0;collapsible=1;marginBottom=0;whiteSpace=wrap;html=1;" vertex="1" parent="1">
          <mxGeometry x="790" y="180" width="260" height="86" as="geometry" />
        </mxCell>
        <mxCell id="MZzf7anuwCpoz_c_mhRq-28" value="- figureList : List&amp;lt;GeometricFigures&amp;gt;" style="text;strokeColor=none;fillColor=none;align=left;verticalAlign=top;spacingLeft=4;spacingRight=4;overflow=hidden;rotatable=0;points=[[0,0.5],[1,0.5]];portConstraint=eastwest;whiteSpace=wrap;html=1;" vertex="1" parent="MZzf7anuwCpoz_c_mhRq-27">
          <mxGeometry y="26" width="260" height="26" as="geometry" />
        </mxCell>
        <mxCell id="MZzf7anuwCpoz_c_mhRq-29" value="" style="line;strokeWidth=1;fillColor=none;align=left;verticalAlign=middle;spacingTop=-1;spacingLeft=3;spacingRight=3;rotatable=0;labelPosition=right;points=[];portConstraint=eastwest;strokeColor=inherit;" vertex="1" parent="MZzf7anuwCpoz_c_mhRq-27">
          <mxGeometry y="52" width="260" height="8" as="geometry" />
        </mxCell>
        <mxCell id="MZzf7anuwCpoz_c_mhRq-30" value="+ method(type): type" style="text;strokeColor=none;fillColor=none;align=left;verticalAlign=top;spacingLeft=4;spacingRight=4;overflow=hidden;rotatable=0;points=[[0,0.5],[1,0.5]];portConstraint=eastwest;whiteSpace=wrap;html=1;" vertex="1" parent="MZzf7anuwCpoz_c_mhRq-27">
          <mxGeometry y="60" width="260" height="26" as="geometry" />
        </mxCell>
        <mxCell id="MZzf7anuwCpoz_c_mhRq-39" style="edgeStyle=orthogonalEdgeStyle;rounded=0;orthogonalLoop=1;jettySize=auto;html=1;entryX=0.025;entryY=0.115;entryDx=0;entryDy=0;entryPerimeter=0;" edge="1" parent="1" source="MZzf7anuwCpoz_c_mhRq-2" target="MZzf7anuwCpoz_c_mhRq-8">
          <mxGeometry relative="1" as="geometry" />
        </mxCell>
        <mxCell id="MZzf7anuwCpoz_c_mhRq-43" value="n" style="text;align=center;fontStyle=1;verticalAlign=middle;spacingLeft=3;spacingRight=3;strokeColor=none;rotatable=0;points=[[0,0.5],[1,0.5]];portConstraint=eastwest;html=1;" vertex="1" parent="1">
          <mxGeometry x="280" y="60" width="80" height="26" as="geometry" />
        </mxCell>
        <mxCell id="MZzf7anuwCpoz_c_mhRq-44" value="GeometricFigureFactory" style="swimlane;fontStyle=1;align=center;verticalAlign=top;childLayout=stackLayout;horizontal=1;startSize=26;horizontalStack=0;resizeParent=1;resizeParentMax=0;resizeLast=0;collapsible=1;marginBottom=0;whiteSpace=wrap;html=1;" vertex="1" parent="1">
          <mxGeometry x="254" y="-140" width="286" height="138" as="geometry" />
        </mxCell>
        <mxCell id="MZzf7anuwCpoz_c_mhRq-45" value="- instance : GeometricFigureFactory" style="text;strokeColor=none;fillColor=none;align=left;verticalAlign=top;spacingLeft=4;spacingRight=4;overflow=hidden;rotatable=0;points=[[0,0.5],[1,0.5]];portConstraint=eastwest;whiteSpace=wrap;html=1;" vertex="1" parent="MZzf7anuwCpoz_c_mhRq-44">
          <mxGeometry y="26" width="286" height="26" as="geometry" />
        </mxCell>
        <mxCell id="MZzf7anuwCpoz_c_mhRq-46" value="" style="line;strokeWidth=1;fillColor=none;align=left;verticalAlign=middle;spacingTop=-1;spacingLeft=3;spacingRight=3;rotatable=0;labelPosition=right;points=[];portConstraint=eastwest;strokeColor=inherit;" vertex="1" parent="MZzf7anuwCpoz_c_mhRq-44">
          <mxGeometry y="52" width="286" height="8" as="geometry" />
        </mxCell>
        <mxCell id="MZzf7anuwCpoz_c_mhRq-50" value="- getInstance : GeometricFigureFactory" style="text;strokeColor=none;fillColor=none;align=left;verticalAlign=top;spacingLeft=4;spacingRight=4;overflow=hidden;rotatable=0;points=[[0,0.5],[1,0.5]];portConstraint=eastwest;whiteSpace=wrap;html=1;" vertex="1" parent="MZzf7anuwCpoz_c_mhRq-44">
          <mxGeometry y="60" width="286" height="26" as="geometry" />
        </mxCell>
        <mxCell id="MZzf7anuwCpoz_c_mhRq-47" value="- GeometricFigureFactory()" style="text;strokeColor=none;fillColor=none;align=left;verticalAlign=top;spacingLeft=4;spacingRight=4;overflow=hidden;rotatable=0;points=[[0,0.5],[1,0.5]];portConstraint=eastwest;whiteSpace=wrap;html=1;" vertex="1" parent="MZzf7anuwCpoz_c_mhRq-44">
          <mxGeometry y="86" width="286" height="26" as="geometry" />
        </mxCell>
        <mxCell id="MZzf7anuwCpoz_c_mhRq-51" value="- generateGeometricFigure() : GeometricFigure" style="text;strokeColor=none;fillColor=none;align=left;verticalAlign=top;spacingLeft=4;spacingRight=4;overflow=hidden;rotatable=0;points=[[0,0.5],[1,0.5]];portConstraint=eastwest;whiteSpace=wrap;html=1;" vertex="1" parent="MZzf7anuwCpoz_c_mhRq-44">
          <mxGeometry y="112" width="286" height="26" as="geometry" />
        </mxCell>
      </root>
    </mxGraphModel>
  </diagram>
</mxfile>
